PathFileType	4	(X/Y/Z)	Patient4_TMGait_0pt2_03_right_08.trc.trc
DataRate	CameraRate	NumFrames	NumMarkers	Units	OrigDataRate	OrigDataStartFrame	OrigNumFrames
46.979865771812	46.979865771812	4	33	mm	46.979865771812	1	       141
Frame#	Time	Sacral			L.Shoulder			Chest			R.Shoulder			Neck			R.ASIS			L.ASIS			R.Thigh.Superior			R.Thigh.Lateral			R.Thigh.Inferior			R.Patella			L.Thigh.Superior			L.Thigh.Lateral			L.Thigh.Inferior			L.Patella			L.Shank.Superior			L.Shank.Lateral			L.Shank.Inferior			R.Shank.Superior			R.Shank.Lateral			R.Shank.Inferior			R.Heel			R.Midfoot.Superior			R.Midfoot.Lateral			R.Toe			L.Heel			L.Midfoot.Lateral			L.Midfoot.Superior			L.Toe			L.Elbow			L.Wrist			R.Elbow			R.Wrist			
		X1	Y1	Z1	X2	Y2	Z2	X3	Y3	Z3	X4	Y4	Z4	X5	Y5	Z5	X6	Y6	Z6	X7	Y7	Z7	X8	Y8	Z8	X9	Y9	Z9	X10	Y10	Z10	X11	Y11	Z11	X12	Y12	Z12	X13	Y13	Z13	X14	Y14	Z14	X15	Y15	Z15	X16	Y16	Z16	X17	Y17	Z17	X18	Y18	Z18	X19	Y19	Z19	X20	Y20	Z20	X21	Y21	Z21	X22	Y22	Z22	X23	Y23	Z23	X24	Y24	Z24	X25	Y25	Z25	X26	Y26	Z26	X27	Y27	Z27	X28	Y28	Z28	X29	Y29	Z29	X30	Y30	Z30	X31	Y31	Z31	X32	Y32	Z32	X33	Y33	Z33	

1	17.050000000000	754.125468940457	1002.747698875415	420.045438032444	963.841386398028	1425.539343973026	255.007684027645	1044.331940631436	1356.459472989025	427.368741263557	944.944977634373	1431.841035276028	590.784745839750	920.145447594645	1489.655078657245	411.158195307863	970.778595946482	940.500393451726	562.617483802091	986.605687752511	952.387324185482	288.014523228866	1033.742907510704	746.746196006633	544.176896051556	965.384837919402	635.670949449198	616.639184305060	1052.306242053049	579.453902748356	544.517498929325	1053.350042358387	471.512766645608	570.567008697752	1041.857542447313	749.407294207727	328.832822868649	974.348046660504	622.192112500484	262.690087848485	1060.610981000253	556.429097252587	336.457007416488	1066.158746202613	482.632851539947	344.957431019692	1031.371795872171	407.528863900300	336.311053687236	937.151440535084	301.323486789930	277.071636316242	967.728486432975	186.994338735525	351.836118904058	977.145695199311	402.500684516661	583.696597054259	861.605985940395	366.473969154391	656.695474510413	841.976229193896	255.493782207073	612.070709908199	636.220552077987	197.043132742603	610.532025252615	807.644663804953	131.715294403924	628.240190327960	701.718637278615	130.021780407205	671.209377691515	873.072211500211	29.379142245581	634.044576553070	824.147746383666	38.899447496807	382.410051736024	901.623181653121	35.731255964987	305.231414848624	984.523927049180	95.793600412434	337.407836476717	1113.730377963180	41.605395136024	313.308977558399	1039.928174252078	1088.305637070032	119.511910654862	1223.101356495611	898.769172720974	140.867446454938	913.005377487590	1076.536600063890	707.213040832619	1008.170937615815	833.611961204343	720.541432513917	
2	17.071285714286	752.128951093265	1001.176889659357	416.404584860479	966.045016967026	1423.392567086665	252.992801829157	1043.849849442379	1354.478785373386	426.533675096384	942.268843448471	1430.301307090617	588.500030199466	920.612523969317	1487.995087512630	408.596494411090	968.064053019051	939.424299670937	560.770084647745	986.134947459627	950.316262285814	286.052898468164	1035.933531554227	749.723612830266	540.467339797960	972.256103758006	637.202334717496	613.021349014992	1059.710149947711	583.175796648472	540.249452343089	1063.351602691547	474.311471206833	566.855170655638	1041.645919904506	748.156764996919	327.131816694455	974.399397857729	620.648032989886	261.610223007539	1060.385027107675	555.322073359799	336.078956545755	1066.089850257478	481.521424498368	345.085792516675	1030.602088416265	406.019400144452	336.344493419999	935.694151715415	300.509282054933	276.846103299346	964.644308239912	186.106955798918	351.960011375393	986.420241242884	404.839322360747	580.408475533245	870.044356199481	370.605127862614	653.442126940694	848.940218085552	259.630940595581	609.334464153904	642.504690194683	204.125924586230	607.738143323418	813.362332276906	136.786360079467	626.341825612052	707.157443428013	136.778168845059	669.219401023711	877.161249859548	30.389854154094	633.655429398405	819.878344184703	38.843352809434	382.321141467357	897.389756518453	35.662679581816	305.137556840288	980.264511986982	95.664196743786	337.496732206664	1109.492586487229	41.564197123992	313.312536604472	1048.232560457545	1088.117654043777	117.491452109782	1242.095599468014	912.158294177075	139.777443175246	891.259112432772	1079.242828724257	703.114704617113	965.182484254849	832.004381917292	717.376464678245	
3	17.092571428571	750.180575414063	999.979561920528	412.738561512655	968.329849473615	1421.578586929292	251.097275804144	1043.361254665326	1352.856085376651	425.842656054267	939.532650830363	1429.165258111130	586.280444618795	921.088483639695	1486.664941824543	406.117240859162	965.254796599594	938.652032214067	559.037621591815	985.689392354032	948.606036522786	284.253460623597	1037.857520458472	752.936557096806	536.950387798449	978.635918432438	638.993367186624	609.587778354703	1066.663090537377	587.117966781296	536.253306936740	1072.954983132549	477.479557820694	563.371672774252	1041.184510682329	747.008956252047	325.410509613286	973.933598899642	619.343846092493	260.454109666918	1059.536543355221	554.296070790156	335.575135546979	1065.298842347182	480.546523726425	345.073108181721	1029.195282976817	404.699645901428	336.247406729441	933.723908479061	299.764369744042	276.526346847142	961.227730574515	185.328793248285	352.015697941702	995.557687463368	407.364490692269	577.293569026586	878.528555794069	374.295463133039	650.332547665867	856.534480327362	263.233526799665	606.688317082286	649.658872666843	209.332592035966	604.967200596165	820.365441505687	141.267571218156	624.498829162575	713.917395622964	142.210589710322	667.302381328391	883.370932461252	31.580730510010	633.387732153508	815.438855234334	38.786797846121	382.226067328444	892.991280964271	35.591128106658	305.036325534096	975.837416919607	95.544246810813	337.553984145335	1105.089318277992	41.532558468813	313.312091377728	1056.616501272949	1088.360014174945	115.497178489647	1261.167743083412	926.673093171362	138.743346375509	869.079020306243	1082.846512247732	698.772806592827	921.621772632716	831.683254505343	713.733152030284	
4	17.113857142857	748.376230893670	999.362281289795	409.180102518970	970.661552834120	1420.308855019637	249.446963798357	1042.884401596802	1351.802405543650	425.385931798061	936.813804015454	1428.650406599161	584.232247824043	921.558382909642	1485.852558681628	403.848139081046	962.411552347068	938.349796734734	557.544656618503	985.297964177316	947.462743467016	282.766216765873	1039.291440906135	756.327235057137	533.865175046514	984.013533407268	641.072224287459	606.579069868562	1072.621162354041	591.182135662116	532.815896633117	1081.529002321933	481.039064128109	560.360457376088	1040.360844628528	746.042852335357	323.773927804081	972.743785807629	618.427916455137	259.253792264389	1057.811498935839	553.422048404107	334.942544474078	1063.480585005731	479.798947300352	344.885362053490	1026.914955472247	403.700780257178	335.983968762375	931.081635524032	299.148030212039	276.095612674045	957.450512891585	184.735207773861	351.978352537098	1004.108186345425	410.055551113843	574.572364431117	886.785776527867	377.194846804296	647.596661553754	864.806961589814	265.948266391200	604.320470182328	657.968933097016	211.655712199811	602.422998647037	829.056382705083	144.767277478716	622.852552551091	722.476045585995	145.555988876801	665.617880382448	892.463885487845	33.045017487773	633.304633083067	810.912272468897	38.731858803786	382.127253346481	888.509389274575	35.518649724983	304.929475056349	971.325319831831	95.442591462978	337.566433037174	1100.602648183081	41.516191140630	313.306110058606	1064.824935383611	1089.227106354927	113.614064716859	1279.633384431565	942.303137112834	137.841604132672	847.138856908578	1087.591484483930	694.250513762813	878.961506191691	833.175773742412	709.548517876098	
